<svg width="1776" height="634" viewBox="0 0 1776 634" fill="none" xmlns="http://www.w3.org/2000/svg">
<path d="M194.728 177.48C170.248 177.48 149.512 187.272 137.128 203.112C126.472 185.832 107.752 177.48 85.288 177.48C64.264 177.48 46.408 184.968 34.888 198.792V179.208H0.616001V333H36.616V254.952C36.616 224.424 52.744 208.872 76.648 208.872C98.536 208.872 111.208 222.12 111.208 249.48V333H147.208V254.952C147.208 224.424 163.624 208.872 187.24 208.872C209.128 208.872 221.8 222.12 221.8 249.48V333H257.8V244.872C257.8 198.504 231.88 177.48 194.728 177.48ZM362.556 177.48C337.788 177.48 313.884 183.816 297.468 196.488L311.58 222.696C323.1 213.192 340.956 207.432 358.236 207.432C383.868 207.432 396.54 219.816 396.54 240.84V243.144H356.796C310.14 243.144 292.86 263.304 292.86 288.936C292.86 315.72 315.036 335.016 350.172 335.016C373.212 335.016 389.916 327.528 398.556 314.28V333H432.54V242.856C432.54 198.504 406.908 177.48 362.556 177.48ZM357.66 308.808C339.228 308.808 328.284 300.456 328.284 287.496C328.284 276.264 334.908 267.048 359.388 267.048H396.54V284.904C390.492 300.744 375.228 308.808 357.66 308.808ZM591.637 179.208V256.968C591.637 287.784 574.645 303.336 549.589 303.336C526.837 303.336 513.589 290.088 513.589 262.152V179.208H477.589V267.048C477.589 313.416 504.373 335.016 543.829 335.016C563.701 335.016 581.845 327.528 593.365 313.416V333H627.637V179.208H591.637Z" fill="#2971B8" fill-opacity="0.2"/>
<path d="M762.036 177.48C739.572 177.48 720.852 184.968 709.044 199.08V179.208H674.772V333H710.772V255.24C710.772 224.424 728.052 208.872 753.684 208.872C776.724 208.872 790.26 222.12 790.26 249.48V333H826.26V244.872C826.26 198.504 798.9 177.48 762.036 177.48ZM991.703 179.208V199.656C979.031 184.392 960.023 177.48 938.423 177.48C894.359 177.48 860.663 206.856 860.663 251.496C860.663 296.136 894.359 326.088 938.423 326.088C959.159 326.088 977.303 319.464 989.975 305.64V313.704C989.975 344.808 974.999 360.36 941.015 360.36C919.703 360.36 897.815 353.16 884.279 341.928L868.151 369C885.719 383.4 914.231 390.888 943.031 390.888C996.887 390.888 1025.97 365.544 1025.97 309.672V179.208H991.703ZM943.895 295.56C916.535 295.56 896.951 277.704 896.951 251.496C896.951 225.576 916.535 208.008 943.895 208.008C970.967 208.008 990.551 225.576 990.551 251.496C990.551 277.704 970.967 295.56 943.895 295.56ZM1084.82 335.016C1097.78 335.016 1108.44 324.936 1108.44 311.112C1108.44 296.712 1097.78 287.208 1084.82 287.208C1071.86 287.208 1061.21 296.712 1061.21 311.112C1061.21 324.936 1071.86 335.016 1084.82 335.016Z" fill="#EF4141" fill-opacity="0.2"/>
<path d="M761.695 144.295C789.445 144.295 806.465 132.27 806.465 113.77C806.465 75.105 745.415 92.865 745.415 72.885C745.415 66.41 752.075 61.785 766.135 61.785C775.57 61.785 785.005 63.635 794.44 69.185L803.32 51.61C794.44 46.245 779.455 43.1 766.32 43.1C739.68 43.1 722.845 55.31 722.845 73.995C722.845 113.4 783.895 95.64 783.895 114.51C783.895 121.355 777.79 125.425 763.175 125.425C750.78 125.425 737.46 121.355 728.765 115.62L719.885 133.195C728.765 139.485 745.23 144.295 761.695 144.295ZM870.78 144.295C901.49 144.295 923.505 123.205 923.505 93.605C923.505 64.005 901.49 43.1 870.78 43.1C840.44 43.1 818.24 64.005 818.24 93.605C818.24 123.205 840.44 144.295 870.78 144.295ZM870.78 124.5C854.13 124.5 841.55 112.475 841.55 93.605C841.55 74.735 854.13 62.71 870.78 62.71C887.615 62.71 900.195 74.735 900.195 93.605C900.195 112.475 887.615 124.5 870.78 124.5ZM945.618 143H968.743V5.72999H945.618V143ZM1010.75 27.93C1019.44 27.93 1025.55 21.64 1025.55 13.5C1025.55 5.91499 1019.26 0.179997 1010.75 0.179997C1002.24 0.179997 995.95 6.285 995.95 14.055C995.95 21.825 1002.24 27.93 1010.75 27.93ZM999.095 143H1022.22V44.21H999.095V143ZM1126.2 5.72999V56.42C1118.43 47.355 1107.15 43.1 1094.38 43.1C1065.71 43.1 1044.43 62.895 1044.43 93.605C1044.43 124.315 1065.71 144.295 1094.38 144.295C1107.89 144.295 1119.36 139.67 1127.13 130.235V143H1149.33V5.72999H1126.2ZM1097.16 124.5C1080.51 124.5 1067.74 112.475 1067.74 93.605C1067.74 74.735 1080.51 62.71 1097.16 62.71C1113.81 62.71 1126.57 74.735 1126.57 93.605C1126.57 112.475 1113.81 124.5 1097.16 124.5Z" fill="black"/>
<path d="M785.93 247.1C772.425 247.1 760.955 251.725 753.185 261.16V248.21H731.17V382.89H754.295V334.975C762.25 344.04 773.35 348.295 785.93 348.295C814.79 348.295 836.065 328.315 836.065 297.605C836.065 267.08 814.79 247.1 785.93 247.1ZM783.34 328.5C766.69 328.5 753.925 316.475 753.925 297.605C753.925 278.735 766.69 266.71 783.34 266.71C799.99 266.71 812.57 278.735 812.57 297.605C812.57 316.475 799.99 328.5 783.34 328.5ZM950.866 298.16C950.866 267.265 929.776 247.1 900.916 247.1C871.501 247.1 849.856 268.19 849.856 297.605C849.856 327.02 871.316 348.295 904.431 348.295C921.451 348.295 935.326 342.745 944.206 332.2L931.811 317.955C924.781 325.17 916.086 328.685 904.986 328.685C887.781 328.685 875.756 319.435 872.981 305.005H950.496C950.681 302.785 950.866 300.01 950.866 298.16ZM900.916 265.6C916.086 265.6 927.001 275.405 928.851 289.65H872.796C875.016 275.22 885.931 265.6 900.916 265.6ZM1046.71 209.73V260.42C1038.94 251.355 1027.65 247.1 1014.89 247.1C986.214 247.1 964.939 266.895 964.939 297.605C964.939 328.315 986.214 348.295 1014.89 348.295C1028.39 348.295 1039.86 343.67 1047.63 334.235V347H1069.83V209.73H1046.71ZM1017.66 328.5C1001.01 328.5 988.249 316.475 988.249 297.605C988.249 278.735 1001.01 266.71 1017.66 266.71C1034.31 266.71 1047.08 278.735 1047.08 297.605C1047.08 316.475 1034.31 328.5 1017.66 328.5ZM1172.61 248.21V298.16C1172.61 317.955 1161.69 327.945 1145.6 327.945C1130.98 327.945 1122.47 319.435 1122.47 301.49V248.21H1099.35V304.635C1099.35 334.42 1116.55 348.295 1141.9 348.295C1154.66 348.295 1166.32 343.485 1173.72 334.42V347H1195.73V248.21H1172.61ZM1226.01 347H1249.13V209.73H1226.01V347ZM1291.14 231.93C1299.84 231.93 1305.94 225.64 1305.94 217.5C1305.94 209.915 1299.65 204.18 1291.14 204.18C1282.63 204.18 1276.34 210.285 1276.34 218.055C1276.34 225.825 1282.63 231.93 1291.14 231.93ZM1279.49 347H1302.61V248.21H1279.49V347Z" fill="black"/>
<path d="M785.93 477.1C773.35 477.1 762.25 481.355 754.295 490.235V439.73H731.17V577H753.185V564.235C760.955 573.67 772.425 578.295 785.93 578.295C814.79 578.295 836.065 558.315 836.065 527.605C836.065 496.895 814.79 477.1 785.93 477.1ZM783.34 558.5C766.69 558.5 753.925 546.475 753.925 527.605C753.925 508.735 766.69 496.71 783.34 496.71C799.99 496.71 812.57 508.735 812.57 527.605C812.57 546.475 799.99 558.5 783.34 558.5ZM950.866 528.16C950.866 497.265 929.776 477.1 900.916 477.1C871.501 477.1 849.856 498.19 849.856 527.605C849.856 557.02 871.316 578.295 904.431 578.295C921.451 578.295 935.326 572.745 944.206 562.2L931.811 547.955C924.781 555.17 916.086 558.685 904.986 558.685C887.781 558.685 875.756 549.435 872.981 535.005H950.496C950.681 532.785 950.866 530.01 950.866 528.16ZM900.916 495.6C916.086 495.6 927.001 505.405 928.851 519.65H872.796C875.016 505.22 885.931 495.6 900.916 495.6ZM995.094 492.64V478.21H973.079V577H996.204V529.085C996.204 508.92 1007.3 498.56 1024.88 498.56C1026.54 498.56 1028.21 498.745 1030.24 499.115V477.1C1013.78 477.1 1001.75 482.28 995.094 492.64ZM1104.62 477.1C1091.12 477.1 1079.65 481.725 1071.88 491.16V478.21H1049.86V612.89H1072.99V564.975C1080.94 574.04 1092.04 578.295 1104.62 578.295C1133.48 578.295 1154.76 558.315 1154.76 527.605C1154.76 497.08 1133.48 477.1 1104.62 477.1ZM1102.03 558.5C1085.38 558.5 1072.62 546.475 1072.62 527.605C1072.62 508.735 1085.38 496.71 1102.03 496.71C1118.68 496.71 1131.26 508.735 1131.26 527.605C1131.26 546.475 1118.68 558.5 1102.03 558.5ZM1198.7 492.64V478.21H1176.69V577H1199.81V529.085C1199.81 508.92 1210.91 498.56 1228.49 498.56C1230.15 498.56 1231.82 498.745 1233.85 499.115V477.1C1217.39 477.1 1205.36 482.28 1198.7 492.64ZM1345.44 528.16C1345.44 497.265 1324.35 477.1 1295.49 477.1C1266.07 477.1 1244.43 498.19 1244.43 527.605C1244.43 557.02 1265.89 578.295 1299 578.295C1316.02 578.295 1329.9 572.745 1338.78 562.2L1326.38 547.955C1319.35 555.17 1310.66 558.685 1299.56 558.685C1282.35 558.685 1270.33 549.435 1267.55 535.005H1345.07C1345.25 532.785 1345.44 530.01 1345.44 528.16ZM1295.49 495.6C1310.66 495.6 1321.57 505.405 1323.42 519.65H1267.37C1269.59 505.22 1280.5 495.6 1295.49 495.6ZM1398.17 578.295C1425.92 578.295 1442.94 566.27 1442.94 547.77C1442.94 509.105 1381.89 526.865 1381.89 506.885C1381.89 500.41 1388.55 495.785 1402.61 495.785C1412.05 495.785 1421.48 497.635 1430.92 503.185L1439.8 485.61C1430.92 480.245 1415.93 477.1 1402.8 477.1C1376.16 477.1 1359.32 489.31 1359.32 507.995C1359.32 547.4 1420.37 529.64 1420.37 548.51C1420.37 555.355 1414.27 559.425 1399.65 559.425C1387.26 559.425 1373.94 555.355 1365.24 549.62L1356.36 567.195C1365.24 573.485 1381.71 578.295 1398.17 578.295ZM1515.77 555.17C1512.25 557.945 1507.63 559.24 1502.82 559.24C1493.94 559.24 1489.13 554.06 1489.13 544.44V497.45H1515.58V478.95H1489.13V456.38H1466V478.95H1449.72V497.45H1466V544.995C1466 566.825 1478.4 578.295 1500.04 578.295C1508.37 578.295 1516.69 576.075 1522.24 571.635L1515.77 555.17ZM1579.01 477.1C1563.1 477.1 1547.74 481.17 1537.2 489.31L1546.26 506.145C1553.66 500.04 1565.13 496.34 1576.23 496.34C1592.7 496.34 1600.84 504.295 1600.84 517.8V519.28H1575.31C1545.34 519.28 1534.24 532.23 1534.24 548.695C1534.24 565.9 1548.48 578.295 1571.05 578.295C1585.85 578.295 1596.58 573.485 1602.13 564.975V577H1623.96V519.095C1623.96 490.605 1607.5 477.1 1579.01 477.1ZM1575.86 561.46C1564.02 561.46 1556.99 556.095 1556.99 547.77C1556.99 540.555 1561.25 534.635 1576.97 534.635H1600.84V546.105C1596.95 556.28 1587.15 561.46 1575.86 561.46ZM1684.17 578.295C1711.92 578.295 1728.94 566.27 1728.94 547.77C1728.94 509.105 1667.89 526.865 1667.89 506.885C1667.89 500.41 1674.55 495.785 1688.61 495.785C1698.04 495.785 1707.48 497.635 1716.91 503.185L1725.79 485.61C1716.91 480.245 1701.93 477.1 1688.79 477.1C1662.15 477.1 1645.32 489.31 1645.32 507.995C1645.32 547.4 1706.37 529.64 1706.37 548.51C1706.37 555.355 1700.26 559.425 1685.65 559.425C1673.25 559.425 1659.93 555.355 1651.24 549.62L1642.36 567.195C1651.24 573.485 1667.7 578.295 1684.17 578.295ZM1760.51 461.93C1769.2 461.93 1775.31 455.64 1775.31 447.5C1775.31 439.915 1769.02 434.18 1760.51 434.18C1752 434.18 1745.71 440.285 1745.71 448.055C1745.71 455.825 1752 461.93 1760.51 461.93ZM1748.85 577H1771.98V478.21H1748.85V577Z" fill="black"/>
<circle cx="72" cy="480" r="8" fill="#050303"/>
<circle cx="72" cy="509" r="8" fill="#050303"/>
<circle cx="72" cy="538" r="8" fill="#050303"/>
<circle cx="108" cy="480" r="8" fill="#050303"/>
<circle cx="108" cy="509" r="8" fill="#050303"/>
<circle cx="108" cy="538" r="8" fill="#050303"/>
<circle cx="144" cy="480" r="8" fill="#050303"/>
<circle cx="144" cy="509" r="8" fill="#050303"/>
<circle cx="144" cy="538" r="8" fill="#050303"/>
<circle cx="72" cy="568" r="8" fill="#050303"/>
<circle cx="72" cy="597" r="8" fill="#050303"/>
<circle cx="72" cy="626" r="8" fill="#050303"/>
<circle cx="108" cy="568" r="8" fill="#050303"/>
<circle cx="108" cy="597" r="8" fill="#050303"/>
<circle cx="108" cy="626" r="8" fill="#050303"/>
<circle cx="144" cy="568" r="8" fill="#050303"/>
<circle cx="144" cy="597" r="8" fill="#050303"/>
<circle cx="144" cy="626" r="8" fill="#050303"/>
<circle cx="180" cy="568" r="8" fill="#050303"/>
<circle cx="180" cy="597" r="8" fill="#050303"/>
<circle cx="180" cy="626" r="8" fill="#050303"/>
<circle cx="216" cy="568" r="8" fill="#050303"/>
<circle cx="216" cy="597" r="8" fill="#050303"/>
<circle cx="216" cy="626" r="8" fill="#050303"/>
<circle cx="216" cy="480" r="8" fill="#050303"/>
<circle cx="216" cy="509" r="8" fill="#050303"/>
<circle cx="216" cy="538" r="8" fill="#050303"/>
<circle cx="180" cy="480" r="8" fill="#050303"/>
<circle cx="180" cy="509" r="8" fill="#050303"/>
<circle cx="180" cy="538" r="8" fill="#050303"/>
</svg>
