<svg width="865" height="594" viewBox="0 0 865 594" fill="none" xmlns="http://www.w3.org/2000/svg">
<path d="M558.537 113.008C580.137 113.008 593.385 103.648 593.385 89.248C593.385 59.152 545.865 72.976 545.865 57.424C545.865 52.384 551.049 48.784 561.993 48.784C569.337 48.784 576.681 50.224 584.025 54.544L590.937 40.864C584.025 36.688 572.361 34.24 562.137 34.24C541.401 34.24 528.297 43.744 528.297 58.288C528.297 88.96 575.817 75.136 575.817 89.824C575.817 95.152 571.065 98.32 559.689 98.32C550.041 98.32 539.673 95.152 532.905 90.688L525.993 104.368C532.905 109.264 545.721 113.008 558.537 113.008ZM643.446 113.008C667.35 113.008 684.486 96.592 684.486 73.552C684.486 50.512 667.35 34.24 643.446 34.24C619.83 34.24 602.55 50.512 602.55 73.552C602.55 96.592 619.83 113.008 643.446 113.008ZM643.446 97.6C630.486 97.6 620.694 88.24 620.694 73.552C620.694 58.864 630.486 49.504 643.446 49.504C656.55 49.504 666.342 58.864 666.342 73.552C666.342 88.24 656.55 97.6 643.446 97.6ZM701.699 112H719.699V5.15199H701.699V112ZM752.396 22.432C759.164 22.432 763.916 17.536 763.916 11.2C763.916 5.29599 759.02 0.831998 752.396 0.831998C745.772 0.831998 740.876 5.584 740.876 11.632C740.876 17.68 745.772 22.432 752.396 22.432ZM743.324 112H761.324V35.104H743.324V112ZM842.261 5.15199V44.608C836.213 37.552 827.429 34.24 817.493 34.24C795.173 34.24 778.613 49.648 778.613 73.552C778.613 97.456 795.173 113.008 817.493 113.008C828.005 113.008 836.933 109.408 842.981 102.064V112H860.261V5.15199H842.261ZM819.653 97.6C806.693 97.6 796.757 88.24 796.757 73.552C796.757 58.864 806.693 49.504 819.653 49.504C832.613 49.504 842.549 58.864 842.549 73.552C842.549 88.24 832.613 97.6 819.653 97.6Z" fill="black"/>
<path d="M460.01 174.24C449.498 174.24 440.57 177.84 434.522 185.184V175.104H417.386V279.936H435.386V242.64C441.578 249.696 450.218 253.008 460.01 253.008C482.474 253.008 499.034 237.456 499.034 213.552C499.034 189.792 482.474 174.24 460.01 174.24ZM457.994 237.6C445.034 237.6 435.098 228.24 435.098 213.552C435.098 198.864 445.034 189.504 457.994 189.504C470.954 189.504 480.746 198.864 480.746 213.552C480.746 228.24 470.954 237.6 457.994 237.6ZM588.393 213.984C588.393 189.936 571.977 174.24 549.513 174.24C526.617 174.24 509.769 190.656 509.769 213.552C509.769 236.448 526.473 253.008 552.249 253.008C565.497 253.008 576.297 248.688 583.209 240.48L573.561 229.392C568.089 235.008 561.321 237.744 552.681 237.744C539.289 237.744 529.929 230.544 527.769 219.312H588.105C588.249 217.584 588.393 215.424 588.393 213.984ZM549.513 188.64C561.321 188.64 569.817 196.272 571.257 207.36H527.625C529.353 196.128 537.849 188.64 549.513 188.64ZM662.995 145.152V184.608C656.947 177.552 648.163 174.24 638.227 174.24C615.907 174.24 599.347 189.648 599.347 213.552C599.347 237.456 615.907 253.008 638.227 253.008C648.739 253.008 657.667 249.408 663.715 242.064V252H680.995V145.152H662.995ZM640.387 237.6C627.427 237.6 617.491 228.24 617.491 213.552C617.491 198.864 627.427 189.504 640.387 189.504C653.347 189.504 663.283 198.864 663.283 213.552C663.283 228.24 653.347 237.6 640.387 237.6ZM760.99 175.104V213.984C760.99 229.392 752.494 237.168 739.966 237.168C728.59 237.168 721.966 230.544 721.966 216.576V175.104H703.966V219.024C703.966 242.208 717.358 253.008 737.086 253.008C747.022 253.008 756.094 249.264 761.854 242.208V252H778.99V175.104H760.99ZM802.558 252H820.558V145.152H802.558V252ZM853.255 162.432C860.023 162.432 864.775 157.536 864.775 151.2C864.775 145.296 859.879 140.832 853.255 140.832C846.631 140.832 841.735 145.584 841.735 151.632C841.735 157.68 846.631 162.432 853.255 162.432ZM844.183 252H862.183V175.104H844.183V252Z" fill="black"/>
<path d="M92.6664 317.24C82.8744 317.24 74.2344 320.552 68.0424 327.464V288.152H50.0424V395H67.1784V385.064C73.2264 392.408 82.1544 396.008 92.6664 396.008C115.13 396.008 131.69 380.456 131.69 356.552C131.69 332.648 115.13 317.24 92.6664 317.24ZM90.6504 380.6C77.6904 380.6 67.7544 371.24 67.7544 356.552C67.7544 341.864 77.6904 332.504 90.6504 332.504C103.61 332.504 113.402 341.864 113.402 356.552C113.402 371.24 103.61 380.6 90.6504 380.6ZM221.049 356.984C221.049 332.936 204.633 317.24 182.169 317.24C159.273 317.24 142.425 333.656 142.425 356.552C142.425 379.448 159.129 396.008 184.905 396.008C198.153 396.008 208.953 391.688 215.865 383.48L206.217 372.392C200.745 378.008 193.977 380.744 185.337 380.744C171.945 380.744 162.585 373.544 160.425 362.312H220.761C220.905 360.584 221.049 358.424 221.049 356.984ZM182.169 331.64C193.977 331.64 202.473 339.272 203.913 350.36H160.281C162.009 339.128 170.505 331.64 182.169 331.64ZM255.475 329.336V318.104H238.339V395H256.339V357.704C256.339 342.008 264.979 333.944 278.659 333.944C279.955 333.944 281.251 334.088 282.835 334.376V317.24C270.019 317.24 260.659 321.272 255.475 329.336ZM340.729 317.24C330.217 317.24 321.289 320.84 315.241 328.184V318.104H298.105V422.936H316.105V385.64C322.297 392.696 330.937 396.008 340.729 396.008C363.193 396.008 379.753 380.456 379.753 356.552C379.753 332.792 363.193 317.24 340.729 317.24ZM338.713 380.6C325.753 380.6 315.817 371.24 315.817 356.552C315.817 341.864 325.753 332.504 338.713 332.504C351.673 332.504 361.465 341.864 361.465 356.552C361.465 371.24 351.673 380.6 338.713 380.6ZM413.96 329.336V318.104H396.824V395H414.824V357.704C414.824 342.008 423.464 333.944 437.144 333.944C438.44 333.944 439.736 334.088 441.32 334.376V317.24C428.504 317.24 419.144 321.272 413.96 329.336ZM528.174 356.984C528.174 332.936 511.758 317.24 489.294 317.24C466.398 317.24 449.55 333.656 449.55 356.552C449.55 379.448 466.254 396.008 492.03 396.008C505.278 396.008 516.078 391.688 522.99 383.48L513.342 372.392C507.87 378.008 501.102 380.744 492.462 380.744C479.07 380.744 469.71 373.544 467.55 362.312H527.886C528.03 360.584 528.174 358.424 528.174 356.984ZM489.294 331.64C501.102 331.64 509.598 339.272 511.038 350.36H467.406C469.134 339.128 477.63 331.64 489.294 331.64ZM569.224 396.008C590.824 396.008 604.072 386.648 604.072 372.248C604.072 342.152 556.552 355.976 556.552 340.424C556.552 335.384 561.736 331.784 572.68 331.784C580.024 331.784 587.368 333.224 594.712 337.544L601.624 323.864C594.712 319.688 583.048 317.24 572.824 317.24C552.088 317.24 538.984 326.744 538.984 341.288C538.984 371.96 586.504 358.136 586.504 372.824C586.504 378.152 581.752 381.32 570.376 381.32C560.728 381.32 550.36 378.152 543.592 373.688L536.68 387.368C543.592 392.264 556.408 396.008 569.224 396.008ZM660.758 378.008C658.022 380.168 654.422 381.176 650.678 381.176C643.766 381.176 640.022 377.144 640.022 369.656V333.08H660.614V318.68H640.022V301.112H622.022V318.68H609.35V333.08H622.022V370.088C622.022 387.08 631.67 396.008 648.518 396.008C654.998 396.008 661.478 394.28 665.798 390.824L660.758 378.008ZM709.981 317.24C697.597 317.24 685.645 320.408 677.437 326.744L684.493 339.848C690.253 335.096 699.181 332.216 707.821 332.216C720.637 332.216 726.973 338.408 726.973 348.92V350.072H707.101C683.773 350.072 675.133 360.152 675.133 372.968C675.133 386.36 686.221 396.008 703.789 396.008C715.309 396.008 723.661 392.264 727.981 385.64V395H744.973V349.928C744.973 327.752 732.157 317.24 709.981 317.24ZM707.533 382.904C698.317 382.904 692.845 378.728 692.845 372.248C692.845 366.632 696.157 362.024 708.397 362.024H726.973V370.952C723.949 378.872 716.317 382.904 707.533 382.904ZM791.834 396.008C813.434 396.008 826.682 386.648 826.682 372.248C826.682 342.152 779.162 355.976 779.162 340.424C779.162 335.384 784.346 331.784 795.29 331.784C802.634 331.784 809.978 333.224 817.322 337.544L824.234 323.864C817.322 319.688 805.658 317.24 795.434 317.24C774.698 317.24 761.594 326.744 761.594 341.288C761.594 371.96 809.114 358.136 809.114 372.824C809.114 378.152 804.362 381.32 792.986 381.32C783.338 381.32 772.97 378.152 766.202 373.688L759.29 387.368C766.202 392.264 779.018 396.008 791.834 396.008ZM851.255 305.432C858.023 305.432 862.775 300.536 862.775 294.2C862.775 288.296 857.879 283.832 851.255 283.832C844.631 283.832 839.735 288.584 839.735 294.632C839.735 300.68 844.631 305.432 851.255 305.432ZM842.183 395H860.183V318.104H842.183V395Z" fill="black"/>
<path d="M236.728 19.48C212.248 19.48 191.512 29.272 179.128 45.112C168.472 27.832 149.752 19.48 127.288 19.48C106.264 19.48 88.408 26.968 76.888 40.792V21.208H42.616V175H78.616V96.952C78.616 66.424 94.744 50.872 118.648 50.872C140.536 50.872 153.208 64.12 153.208 91.48V175H189.208V96.952C189.208 66.424 205.624 50.872 229.24 50.872C251.128 50.872 263.8 64.12 263.8 91.48V175H299.8V86.872C299.8 40.504 273.88 19.48 236.728 19.48ZM404.556 19.48C379.788 19.48 355.884 25.816 339.468 38.488L353.58 64.696C365.1 55.192 382.956 49.432 400.236 49.432C425.868 49.432 438.54 61.816 438.54 82.84V85.144H398.796C352.14 85.144 334.86 105.304 334.86 130.936C334.86 157.72 357.036 177.016 392.172 177.016C415.212 177.016 431.916 169.528 440.556 156.28V175H474.54V84.856C474.54 40.504 448.908 19.48 404.556 19.48ZM399.66 150.808C381.228 150.808 370.284 142.456 370.284 129.496C370.284 118.264 376.908 109.048 401.388 109.048H438.54V126.904C432.492 142.744 417.228 150.808 399.66 150.808ZM633.637 21.208V98.968C633.637 129.784 616.645 145.336 591.589 145.336C568.837 145.336 555.589 132.088 555.589 104.152V21.208H519.589V109.048C519.589 155.416 546.373 177.016 585.829 177.016C605.701 177.016 623.845 169.528 635.365 155.416V175H669.637V21.208H633.637Z" fill="#2971B8" fill-opacity="0.2"/>
<path d="M129.88 370.48C107.416 370.48 88.696 377.968 76.888 392.08V372.208H42.616V526H78.616V448.24C78.616 417.424 95.896 401.872 121.528 401.872C144.568 401.872 158.104 415.12 158.104 442.48V526H194.104V437.872C194.104 391.504 166.744 370.48 129.88 370.48ZM359.547 372.208V392.656C346.875 377.392 327.867 370.48 306.267 370.48C262.203 370.48 228.507 399.856 228.507 444.496C228.507 489.136 262.203 519.088 306.267 519.088C327.003 519.088 345.147 512.464 357.819 498.64V506.704C357.819 537.808 342.843 553.36 308.859 553.36C287.547 553.36 265.659 546.16 252.123 534.928L235.995 562C253.562 576.4 282.075 583.888 310.875 583.888C364.731 583.888 393.819 558.544 393.819 502.672V372.208H359.547ZM311.739 488.56C284.379 488.56 264.795 470.704 264.795 444.496C264.795 418.576 284.379 401.008 311.739 401.008C338.811 401.008 358.395 418.576 358.395 444.496C358.395 470.704 338.811 488.56 311.739 488.56ZM452.667 528.016C465.627 528.016 476.283 517.936 476.283 504.112C476.283 489.712 465.627 480.208 452.667 480.208C439.707 480.208 429.051 489.712 429.051 504.112C429.051 517.936 439.707 528.016 452.667 528.016Z" fill="#EF4141" fill-opacity="0.2"/>
<circle cx="-1" cy="440" r="8" fill="#050303"/>
<circle cx="-1" cy="469" r="8" fill="#050303"/>
<circle cx="-1" cy="498" r="8" fill="#050303"/>
<circle cx="35" cy="440" r="8" fill="#050303"/>
<circle cx="35" cy="469" r="8" fill="#050303"/>
<circle cx="35" cy="498" r="8" fill="#050303"/>
<circle cx="-1" cy="528" r="8" fill="#050303"/>
<circle cx="-1" cy="557" r="8" fill="#050303"/>
<circle cx="-1" cy="586" r="8" fill="#050303"/>
<circle cx="35" cy="528" r="8" fill="#050303"/>
<circle cx="35" cy="557" r="8" fill="#050303"/>
<circle cx="35" cy="586" r="8" fill="#050303"/>
<circle cx="71" cy="528" r="8" fill="#050303"/>
<circle cx="71" cy="557" r="8" fill="#050303"/>
<circle cx="71" cy="586" r="8" fill="#050303"/>
<circle cx="107" cy="528" r="8" fill="#050303"/>
<circle cx="107" cy="557" r="8" fill="#050303"/>
<circle cx="107" cy="586" r="8" fill="#050303"/>
<circle cx="107" cy="440" r="8" fill="#050303"/>
<circle cx="107" cy="469" r="8" fill="#050303"/>
<circle cx="107" cy="498" r="8" fill="#050303"/>
<circle cx="71" cy="440" r="8" fill="#050303"/>
<circle cx="71" cy="469" r="8" fill="#050303"/>
<circle cx="71" cy="498" r="8" fill="#050303"/>
</svg>
