<svg width="160" height="162" viewBox="0 0 160 162" fill="none" xmlns="http://www.w3.org/2000/svg">
<circle cx="8" cy="8" r="8" fill="#050303"/>
<circle cx="8" cy="37" r="8" fill="#050303"/>
<circle cx="8" cy="66" r="8" fill="#050303"/>
<circle cx="44" cy="8" r="8" fill="#050303"/>
<circle cx="44" cy="37" r="8" fill="#050303"/>
<circle cx="44" cy="66" r="8" fill="#050303"/>
<circle cx="80" cy="8" r="8" fill="#050303"/>
<circle cx="80" cy="37" r="8" fill="#050303"/>
<circle cx="80" cy="66" r="8" fill="#050303"/>
<circle cx="8" cy="96" r="8" fill="#050303"/>
<circle cx="8" cy="125" r="8" fill="#050303"/>
<circle cx="8" cy="154" r="8" fill="#050303"/>
<circle cx="44" cy="96" r="8" fill="#050303"/>
<circle cx="44" cy="125" r="8" fill="#050303"/>
<circle cx="44" cy="154" r="8" fill="#050303"/>
<circle cx="80" cy="96" r="8" fill="#050303"/>
<circle cx="80" cy="125" r="8" fill="#050303"/>
<circle cx="80" cy="154" r="8" fill="#050303"/>
<circle cx="116" cy="96" r="8" fill="#050303"/>
<circle cx="116" cy="125" r="8" fill="#050303"/>
<circle cx="116" cy="154" r="8" fill="#050303"/>
<circle cx="152" cy="96" r="8" fill="#050303"/>
<circle cx="152" cy="125" r="8" fill="#050303"/>
<circle cx="152" cy="154" r="8" fill="#050303"/>
<circle cx="152" cy="8" r="8" fill="#050303"/>
<circle cx="152" cy="37" r="8" fill="#050303"/>
<circle cx="152" cy="66" r="8" fill="#050303"/>
<circle cx="116" cy="8" r="8" fill="#050303"/>
<circle cx="116" cy="37" r="8" fill="#050303"/>
<circle cx="116" cy="66" r="8" fill="#050303"/>
</svg>
